# xmcd CD database file
#
# Track frame offsets:
#	150
#	14382
#	27392
#	41845
#	61142
#	73517
#
# Disc length: 1202 seconds
#
# Revision: 1
# Processed by: cddbd v1.4PL0 Copyright (c) Steve Scherf et al.
# Submitted via: jetAudio 5
#
DISCID=4b04b006
DTITLE=Various Artist - Lipton COUNTRY Collection
DYEAR=1900
DGENRE=
TTITLE0=She Ain't Your Ordinary Girl
TTITLE1=Mi Vida Loca My Crazy Life
TTITLE2=Holdin'
TTITLE3=I'm Not Strong Enough to Say No
TTITLE4=It's A Little Too Late
TTITLE5=Wild Angels
EXTD=
EXTT0=
EXTT1=
EXTT2=
EXTT3=
EXTT4=
EXTT5=
PLAYORDER=
